#!OML:ASF F:\VICON\USERDATA\INSTALL\rory3\rory3.ASF
:FULLY-SPECIFIED
:DEGREES
296
root 4.15301 17.6616 35.0984 -3.28622 -4.37256 -4.22874
lowerback 8.91497 2.62721 4.81419
upperback 0.39175 4.03212 1.08254
thorax -4.33453 1.90857 -2.06805
lowerneck -16.2432 -3.75354 -1.82705
upperneck 18.5043 -4.97767 1.22963
head 8.52177 -2.34729 0.114861
rclavicle 3.53869e-014 6.50321e-015
rhumerus -24.747 -15.4332 -80.9849
rradius 31.2671
rwrist 0.63233
rhand -18.5277 23.6901
rfingers 7.12502
rthumb 7.76105 -6.14744
lclavicle 3.53869e-014 6.50321e-015
lhumerus -41.3336 8.63623 80.5042
lradius 19.5264
lwrist -2.24963
lhand -20.568 31.4716
lfingers 7.12502
lthumb 5.79149 61.3725
rfemur 7.41655 4.02907 27.5657
rtibia 49.0593
rfoot 6.9228 2.55119
rtoes -3.96239
lfemur -23.234 -2.71137 -16.822
ltibia 29.8813
lfoot -1.95874 -5.90875
ltoes -1.10928
297
root 4.17414 17.6786 35.3074 -3.52024 -4.57951 -3.7067
lowerback 9.14098 2.68797 4.34715
upperback 0.402973 4.07208 0.958711
thorax -4.46937 1.93312 -1.95454
lowerneck -16.2869 -3.702 -1.63131
upperneck 18.6033 -4.91352 1.02359
head 8.55109 -2.32406 0.0199736
rclavicle 5.43445e-015 3.62782e-015
rhumerus -25.2244 -15.6225 -80.8989
rradius 31.3908
rwrist 0.71802
rhand -18.2112 23.5505
rfingers 7.12502
rthumb 8.06649 -6.27559
lclavicle 5.43445e-015 3.62782e-015
lhumerus -41.6938 8.382 80.5859
lradius 19.936
lwrist -1.75092
lhand -20.9657 31.6226
lfingers 7.12502
lthumb 5.40743 61.5336
rfemur 6.11697 4.02729 26.7321
rtibia 51.6228
rfoot 10.3552 2.57037
rtoes -0.444661
lfemur -22.4584 -2.76002 -17.6789
ltibia 30.4298
lfoot -2.76104 -4.97991
ltoes -3.69088
298
root 4.19376 17.7013 35.5136 -3.7652 -4.82616 -3.30577
lowerback 9.40253 2.69398 3.97159
upperback 0.457503 4.04789 0.86623
thorax -4.57896 1.92579 -1.85228
lowerneck -16.4944 -3.629 -1.52549
upperneck 18.7568 -4.82974 0.974874
head 8.63519 -2.27966 -0.00895423
rclavicle 3.19121e-014 -4.72114e-015
rhumerus -25.4126 -15.5972 -80.9663
rradius 31.0995
rwrist 0.727648
rhand -18.1762 23.928
rfingers 7.12502
rthumb 8.10028 -5.89675
lclavicle 3.19121e-014 -4.72114e-015
lhumerus -41.7196 8.25333 80.6308
lradius 20.0621
lwrist -1.31736
lhand -21.6202 31.3723
lfingers 7.12502
lthumb 4.77547 61.2985
rfemur 4.66454 4.10095 26.0684
rtibia 54.264
rfoot 14.2226 2.08019
rtoes 4.8947
lfemur -21.5652 -3.17352 -18.2749
ltibia 30.849
lfoot -3.40484 -3.89671
ltoes -3.50335
299
root 4.21041 17.7224 35.7084 -3.87012 -5.05384 -3.27263
lowerback 9.62611 2.69989 3.92849
upperback 0.441556 4.06493 0.911274
thorax -4.72616 1.93142 -1.79728
lowerneck -16.4369 -3.62667 -1.56791
upperneck 18.744 -4.80868 0.939868
head 8.62043 -2.27715 -0.00998889
rclavicle 2.6987e-014 -1.33434e-014
rhumerus -25.7318 -15.6585 -80.9141
rradius 31.0943
rwrist 0.911159
rhand -18.0038 24.1055
rfingers 7.12502
rthumb 8.26668 -5.71281
lclavicle 2.6987e-014 -1.33434e-014
lhumerus -41.7499 8.13512 80.7738
lradius 20.3203
lwrist -0.707394
lhand -21.9122 31.3692
lfingers 7.12502
lthumb 4.49357 61.3015
rfemur 2.99241 4.20311 25.8916
rtibia 56.9223
rfoot 18.0337 0.982033
rtoes 9.23818
lfemur -20.876 -3.64799 -18.4043
ltibia 31.2592
lfoot -3.92055 -3.06667
ltoes -1.21383
300
root 4.22514 17.7331 35.8955 -3.91802 -5.15901 -2.99661
lowerback 9.7768 2.71405 3.6238
upperback 0.474023 4.05486 0.88129
thorax -4.79566 1.93137 -1.66542
lowerneck -16.5948 -3.56097 -1.56362
upperneck 18.78 -4.71749 0.940878
head 8.65978 -2.23238 -0.00245477
rclavicle -2.84448e-014 -2.33572e-015
rhumerus -25.9365 -15.4757 -80.9167
rradius 31.2272
rwrist 0.86284
rhand -17.9251 23.8953
rfingers 7.12502
rthumb 8.34261 -5.91999
lclavicle -2.84448e-014 -2.33572e-015
lhumerus -41.7083 7.60857 81.1737
lradius 20.8051
lwrist 0.509522
lhand -21.9995 30.4351
lfingers 7.12502
lthumb 4.40924 60.3692
rfemur 1.28011 4.0698 25.4525
rtibia 59.5736
rfoot 20.6206 0.0914244
rtoes 10.7356
lfemur -20.2828 -4.04423 -18.8617
ltibia 31.5917
lfoot -4.44555 -2.32614
ltoes -0.076736
